<?xml version="1.0" encoding="utf-8"?>
<!-- Generator: Adobe Illustrator 16.0.0, SVG Export Plug-In . SVG Version: 6.00 Build 0)  -->
<!DOCTYPE svg PUBLIC "-//W3C//DTD SVG 1.1//EN" "http://www.w3.org/Graphics/SVG/1.1/DTD/svg11.dtd">
<svg version="1.1" xmlns="http://www.w3.org/2000/svg" xmlns:xlink="http://www.w3.org/1999/xlink" x="0px" y="0px"
	 width="841.89px" height="595.28px" viewBox="0 0 841.89 595.28" enable-background="new 0 0 841.89 595.28" xml:space="preserve">
<g id="Слой_1">
</g>
<g id="Layer_2">
	<g>
		<g>
			<g>
				<path fill-rule="evenodd" clip-rule="evenodd" fill="#E2001A" d="M689.681,133.481c-70.83-41.897-169.019-67.898-277.588-67.898
					c-215.894,0-390.855,102.819-390.855,229.614c0,104.694,119.008,192.908,281.833,220.61
					c39.441,7.808,81.749,12.064,125.653,12.064c215.288,0,390.381-101.463,390.381-226.224
					C819.104,234.944,769.063,174.951,689.681,133.481z"/>
			</g>
		</g>
		<path fill-rule="evenodd" clip-rule="evenodd" fill="#8B0E13" d="M528.164,515.277c-61.475,6.207-128.728,3.021-184.905-5.463
			c-66.107-9.15-128.11-32.744-176.997-61.072c-63.354-36.736-103.357-86.621-103.357-140.181
			c0-53.63,34.679-101.396,103.357-140.251c71.015-40.087,165.602-62.21,266.485-62.21c100.813,0,195.658,21.875,266.421,62.21
			c63.574,36.248,103.982,86.622,103.427,140.251c-0.36,31.188-23.208,85.231-100.813,126.053
			c-80.265,42.128-154.467,48.419-196.171,50.942c-74.099,4.409-215.725-8.4-288.59-37.633
			c46.08,24.574,190.598,50.94,276.878,48.004c82.981-2.857,154.17-17.802,219.103-52.246
			c57.201-30.288,105.791-80.742,105.791-135.12c0-120.58-172.831-218.22-386.046-218.22c-213.24,0-386.061,97.64-386.061,218.22
			c0,120.507,172.821,218.231,386.061,218.231c65.149,0,121.413-8.494,173.021-23.925C576.667,510.3,557.75,512.338,528.164,515.277
			z"/>
		<path fill-rule="evenodd" clip-rule="evenodd" fill="#FFFFFF" d="M523.207,517.71c-62.301,6.462-130.459,3.147-187.394-5.687
			c-66.996-9.523-129.833-34.08-179.379-63.571C92.229,410.215,51.687,358.291,51.687,302.539
			c0-55.825,35.146-105.545,104.748-145.988c71.971-41.726,167.831-64.754,270.071-64.754c102.171,0,198.292,22.767,270.006,64.754
			c64.43,37.729,105.381,90.163,104.82,145.988c-0.366,32.464-23.522,88.72-102.171,131.211
			c-81.347,43.85-156.545,50.397-198.81,53.025c-75.095,4.589-218.628-8.744-292.474-39.173
			c46.7,25.58,193.163,53.024,280.603,49.966c84.099-2.972,156.244-18.527,222.051-54.381
			c57.97-31.527,107.215-84.047,107.215-140.648c0-125.511-175.155-227.148-391.24-227.148
			c-216.108,0-391.255,101.637-391.255,227.148c0,125.438,175.147,227.158,391.255,227.158c66.024,0,123.044-8.84,175.351-24.902
			C572.362,512.529,553.191,514.653,523.207,517.71z"/>
		<path fill-rule="evenodd" clip-rule="evenodd" fill="#8B0E13" d="M244.179,245.978c17.641,2.38,36.21-3.898,41.984-19.206
			c4.373-11.643-4.114-24.04-21.755-26.26c-17.581-2.209-39.941,4.168-43.561,20.659
			C218.348,232.728,228.839,243.941,244.179,245.978L244.179,245.978z M665.258,312.864h-7.304c-15.12,0-21.539-10.116-18.87-18.783
			c2.349-7.474,8.639-11.138,15.77-12.409c7.602-1.27,13.894-0.939,20.143-0.086L665.258,312.864L665.258,312.864z M654.29,256.09
			c-15.335,1.367-24.9,3.49-35.929,7.572c-14.672,5.429-23.889,12.658-28.865,23.362c-8.791,19.034,1.292,34.5,8.206,40.457
			l-41.641,78.349c13.376-4.588,21.758-7.821,38.454-16.655c10.576-5.522,25.653-15.724,33.022-23.285
			c4.46-4.587,8.53-12.063,9.049-17.083c0.88-8.237-2.178-13.258-5.905-17.083c8.831,1.616,20.422,7.055,26.26,11.988
			c5.557,4.675,11.46,10.793,16.48,20.142c4.46,8.328,10.964,10.029,17.664,10.029h5.667l34.658-113.365
			C710.518,256.262,674.435,254.314,654.29,256.09L654.29,256.09z M402.209,257.534c-11.008,0-19.086,3.405-25.032,7.907
			c-7.216,5.438-12.021,11.05-15.337,21.929l-9.566,31.269h-17.575c-5.065,0-8.729-2.383-10.925-5.689
			c-2.218-3.23-2.734-7.141-1.785-11.136l13.504-44.194l-20.809-0.086c-10.168,0-18.999,3.997-25.462,9.263
			c-8.036,6.462-11.805,14.618-13.205,19.464l-4.331,13.936c-1.745,5.106-3.791,17.255,3.813,28.048
			c8.079,11.471,18.398,14.271,27.573,14.271h24.473c7.476,0,11.353-1.862,15.167-4.837c2.305-1.787,4.265-4.254,5.921-7.226
			l-9.735,31.947c-0.862,2.811-0.214,5.697,1.313,7.734c1.703,2.218,4.028,3.747,7.303,3.747h38.842l35.693-116.349H402.209
			L402.209,257.534z M584.197,257.534l-27.123,88.718c-3.102,8.846-7.927,15.468-16.694,21.169
			c-9.649,6.202-16.911,6.462-25.033,6.462h-17.75l13.638-44.625h-38.323l-5.193,16.994c-3.101,8.846-8.013,15.468-16.779,21.169
			c-9.651,6.202-16.866,6.462-24.99,6.462h-17.751l26.434-86.426c3.188-10.544,8.034-16.663,15.337-22.015
			c5.687-4.331,13.12-7.907,24.557-7.907h20.272l-13.766,45.044h38.28l4.717-15.122c3.19-10.544,8.079-16.663,15.296-22.015
			c5.73-4.331,13.161-7.907,24.558-7.907H584.197L584.197,257.534z M212.404,265.871c7.69-5.698,16.07-8.336,24.772-8.336h32.294
			l-35.137,115.067c-5.665,18.525-19.473,31.697-38.753,34.499c-19.161,2.811-32.376-7.39-32.376-7.39l34.379-112.426
			C200.687,277.676,205.058,271.226,212.404,265.871z"/>
		<path fill-rule="evenodd" clip-rule="evenodd" fill="#FFFFFF" d="M230.347,231.093c17.641,2.38,36.21-3.897,41.984-19.205
			c4.373-11.644-4.114-24.04-21.756-26.259c-17.58-2.209-39.94,4.167-43.559,20.659
			C204.516,217.844,215.007,229.058,230.347,231.093L230.347,231.093z M651.425,297.979h-7.303
			c-15.122,0-21.541-10.115-18.872-18.783c2.349-7.475,8.639-11.138,15.771-12.408c7.601-1.27,13.895-0.939,20.142-0.085
			L651.425,297.979L651.425,297.979z M640.456,241.207c-15.335,1.367-24.9,3.489-35.928,7.571
			c-14.671,5.43-23.889,12.657-28.866,23.362c-8.791,19.035,1.293,34.502,8.208,40.456l-41.642,78.349
			c13.375-4.589,21.757-7.819,38.454-16.653c10.575-5.523,25.653-15.725,33.022-23.285c4.459-4.588,8.53-12.063,9.048-17.083
			c0.882-8.24-2.177-13.259-5.904-17.083c8.831,1.616,20.422,7.055,26.261,11.988c5.555,4.675,11.459,10.792,16.479,20.142
			c4.46,8.327,10.966,10.027,17.664,10.027h5.668l34.658-113.364C696.684,241.378,660.602,239.43,640.456,241.207L640.456,241.207z
			 M388.376,242.65c-11.007,0-19.086,3.405-25.032,7.906c-7.216,5.439-12.021,11.051-15.337,21.929l-9.566,31.269h-17.576
			c-5.064,0-8.727-2.381-10.924-5.688c-2.218-3.23-2.735-7.14-1.785-11.136l13.505-44.193l-20.809-0.086
			c-10.167,0-18.999,3.996-25.462,9.263c-8.036,6.462-11.806,14.615-13.206,19.462l-4.331,13.938
			c-1.746,5.106-3.791,17.255,3.813,28.048c8.079,11.471,18.398,14.271,27.573,14.271h24.473c7.476,0,11.353-1.864,15.167-4.837
			c2.305-1.789,4.265-4.254,5.921-7.227l-9.735,31.946c-0.862,2.812-0.214,5.698,1.313,7.734c1.702,2.218,4.028,3.747,7.303,3.747
			h38.842l35.695-116.347H388.376L388.376,242.65z M570.365,242.65l-27.125,88.718c-3.1,8.845-7.927,15.468-16.694,21.167
			c-9.648,6.203-16.911,6.462-25.033,6.462h-17.75l13.638-44.623h-38.323l-5.191,16.994c-3.103,8.845-8.013,15.468-16.78,21.167
			c-9.652,6.203-16.866,6.462-24.989,6.462h-17.752l26.433-86.424c3.189-10.545,8.036-16.663,15.339-22.016
			c5.687-4.33,13.118-7.906,24.555-7.906h20.272l-13.765,45.042h38.279l4.718-15.12c3.189-10.545,8.078-16.663,15.295-22.016
			c5.73-4.33,13.162-7.906,24.559-7.906H570.365L570.365,242.65z M198.571,250.987c7.69-5.698,16.07-8.336,24.772-8.336h32.293
			L220.5,357.716c-5.667,18.526-19.473,31.699-38.753,34.498c-19.161,2.813-32.376-7.387-32.376-7.387L183.75,272.4
			C186.854,262.792,191.226,256.34,198.571,250.987z"/>
	</g>
</g>
</svg>
