<?xml version="1.0" encoding="UTF-8" standalone="no"?>
<svg
   xmlns:dc="http://purl.org/dc/elements/1.1/"
   xmlns:cc="http://creativecommons.org/ns#"
   xmlns:rdf="http://www.w3.org/1999/02/22-rdf-syntax-ns#"
   xmlns:svg="http://www.w3.org/2000/svg"
   xmlns="http://www.w3.org/2000/svg"
   viewBox="0 0 1052.3625 744.09497"
   height="744.09497"
   width="1052.3625"
   xml:space="preserve"
   version="1.1"
   id="svg2"><metadata
     id="metadata8"><rdf:RDF><cc:Work
         rdf:about=""><dc:format>image/svg+xml</dc:format><dc:type
           rdf:resource="http://purl.org/dc/dcmitype/StillImage" /></cc:Work></rdf:RDF></metadata><defs
     id="defs6"><clipPath
       id="clipPath16"
       clipPathUnits="userSpaceOnUse"><path
         id="path18"
         d="m 0,595.276 841.89,0 L 841.89,0 0,0 0,595.276 Z" /></clipPath></defs><g
     transform="matrix(1.25,0,0,-1.25,0,744.095)"
     id="g10"><g
       id="g12"><g
         clip-path="url(#clipPath16)"
         id="g14"><g
           transform="translate(345.1533,403.4541)"
           id="g20"><path
             id="path22"
             style="fill:#e4322c;fill-opacity:1;fill-rule:nonzero;stroke:none"
             d="M 0,0 C 10.205,24.676 15.523,85.444 0.834,85.444 -14.453,85.444 -9.608,24.12 0,0" /></g><g
           transform="translate(466.1494,403.4541)"
           id="g24"><path
             id="path26"
             style="fill:#e4322c;fill-opacity:1;fill-rule:nonzero;stroke:none"
             d="M 0,0 C 10.203,24.676 15.525,85.444 0.813,85.444 -14.451,85.444 -9.606,24.12 0,0" /></g><g
           transform="translate(333.8574,407.6221)"
           id="g28"><path
             id="path30"
             style="fill:#e4322c;fill-opacity:1;fill-rule:nonzero;stroke:none"
             d="m 0,0 c -4.744,16.102 -34.739,97.097 10.701,125.802 6.252,3.952 -14.808,29.004 -43.02,29.004 -20.348,0 -41.327,-12.923 -49.327,-33.948 -28.05,-73.726 49.842,-164.092 61.993,-177.671 C -10.758,-43.772 3.235,-11.135 0,0" /></g><g
           transform="translate(464.7012,537.4727)"
           id="g32"><path
             id="path34"
             style="fill:#e4322c;fill-opacity:1;fill-rule:nonzero;stroke:none"
             d="m 0,0 c -2.245,8.537 -23.982,32.002 -58.741,31.923 l -0.061,0 -0.06,0 C -93.641,32.002 -115.398,8.537 -117.582,0 c -0.438,-1.686 0,-3.115 1.111,-3.929 24.081,-16.953 32.221,-50.107 7.781,-125.205 -3.952,-12.169 27.873,-54.313 49.828,-54.691 l 0,-0.022 c 0.021,0 0.042,0.022 0.06,0.022 0,0 0.021,-0.022 0.061,-0.022 l 0,0.022 c 21.935,0.378 53.758,42.522 49.807,54.691 -24.437,75.098 -16.297,108.252 7.783,125.205 C 0,-3.115 0.437,-1.686 0,0" /></g><g
           transform="translate(467.3789,390.769)"
           id="g36"><path
             id="path38"
             style="fill:#e4322c;fill-opacity:1;fill-rule:nonzero;stroke:none"
             d="m 0,0 c -7.401,-14.529 -40.715,-51.296 -61.479,-51.594 -20.765,0.298 -54.057,37.065 -61.48,51.594 -7.862,-23.94 -25.67,-44.705 -25.67,-44.705 28.943,-28.944 57.59,-51.277 87.089,-51.437 l 0.061,0 0.061,0 c 29.48,0.16 58.145,22.493 87.066,51.437 0,0 -17.787,20.765 -25.648,44.705" /></g><g
           transform="translate(477.9414,407.6221)"
           id="g40"><path
             id="path42"
             style="fill:#e4322c;fill-opacity:1;fill-rule:nonzero;stroke:none"
             d="m 0,0 c 4.743,16.102 34.722,97.097 -10.701,125.802 -6.252,3.952 14.81,29.004 43,29.004 20.366,0 41.35,-12.923 49.35,-33.948 C 109.7,47.132 31.803,-43.234 19.634,-56.813 10.718,-43.772 -3.258,-11.135 0,0" /></g><g
           transform="translate(33.1982,277.3379)"
           id="g44"><path
             id="path46"
             style="fill:#e4322c;fill-opacity:1;fill-rule:nonzero;stroke:none"
             d="m 0,0 c 2.343,2.38 10.7,2.044 13.351,0 14.927,-11.377 17.033,-68.907 36.527,-68.907 19.058,0 23.525,57.573 38.591,68.907 2.522,1.924 10.403,2.242 12.626,0 23.106,-23.067 23.106,-107.495 0,-130.586 -2.223,-2.201 -10.383,-2.201 -12.626,0 -16.456,16.478 22.77,88.3 0,93.166 -13.619,2.956 -17.827,-39.804 -38.491,-40.159 -20.726,-0.34 -23.287,42.72 -36.627,40.159 -22.9,-4.31 16.477,-76.688 0,-93.166 -2.372,-2.362 -11.008,-2.362 -13.351,0 C -23.087,-107.495 -23.087,-23.067 0,0" /></g><g
           transform="translate(395.7935,151.8359)"
           id="g48"><path
             id="path50"
             style="fill:#e4322c;fill-opacity:1;fill-rule:nonzero;stroke:none"
             d="m 0,0 c 11.178,0 22.414,-1.052 28.609,5.299 3.472,3.597 2.599,12.031 0.536,16.556 -3.594,7.942 -4.665,13.143 -26.979,13.143 -19.137,0 -22.474,-6.829 -22.474,-17.073 C -20.308,6.133 -11.174,0 0,0 m 1.549,71.068 c 34.683,0 43.656,-21.916 44.249,-33.828 0.618,-11.532 3.674,-33.072 -4.762,-41.508 -3.673,-3.634 -28.807,-2.364 -41.809,-2.364 -27.375,0 -38.732,10.027 -38.732,26.321 0,16.778 17.85,24.44 39.704,24.44 19.792,0 26.364,-6.73 30.037,-4.308 5.834,3.794 -1.746,23.764 -27.375,24.08 -26.363,0.279 -20.07,-11.196 -26.482,-16.218 -2.223,-1.727 -13.779,-2.523 -15.525,-0.278 -7.206,9.29 1.507,23.663 40.695,23.663" /></g><g
           transform="translate(197.5029,151.8359)"
           id="g52"><path
             id="path54"
             style="fill:#e4322c;fill-opacity:1;fill-rule:nonzero;stroke:none"
             d="m 0,0 c 11.174,0 22.391,-1.052 28.586,5.299 3.473,3.597 2.619,12.031 0.535,16.556 -3.574,7.942 -4.645,13.143 -26.977,13.143 -19.139,0 -22.475,-6.829 -22.475,-17.073 C -20.331,6.133 -11.178,0 0,0 M 1.528,71.068 C 36.209,71.068 45.201,49.152 45.777,37.24 46.412,25.708 49.45,4.168 41.011,-4.268 37.36,-7.902 12.208,-6.632 -0.795,-6.632 c -27.357,0 -38.71,10.027 -38.71,26.321 0,16.778 17.847,24.44 39.7,24.44 19.774,0 26.365,-6.73 30.037,-4.308 5.816,3.794 -1.746,23.764 -27.394,24.08 -26.345,0.279 -20.051,-11.196 -26.463,-16.218 -2.244,-1.727 -13.797,-2.523 -15.524,-0.278 -7.207,9.29 1.489,23.663 40.677,23.663" /></g><g
           transform="translate(23.1133,224.1563)"
           id="g56"><path
             id="path58"
             style="fill:#ffffff;fill-opacity:1;fill-rule:nonzero;stroke:none"
             d="m 0,0 c 0,0 0.775,26.717 15.445,41.41 6.421,6.432 2.123,12.823 -4.288,7.106 C 3.594,41.805 -2.957,17.311 0,0" /></g><g
           transform="translate(259.7378,146.4336)"
           id="g60"><path
             id="path62"
             style="fill:#e4322c;fill-opacity:1;fill-rule:nonzero;stroke:none"
             d="m 0,0 c -13.52,13.502 -13.52,63.03 0,76.571 1.945,1.923 9.051,1.923 10.977,0 1.608,-1.611 -2.244,-8.894 0,-9.055 2.879,-0.219 5.002,6.471 16.748,6.471 12.647,0 16.697,-8.118 17.252,-8.572 0.556,-0.5 5.201,8.572 18.563,8.572 12.585,0 21.559,-4.761 22.075,-19.374 0.516,-15.007 9.707,-45.043 0,-54.613 -1.828,-1.785 -8.418,-1.785 -10.224,0 -9.668,9.65 0,47.568 0,51.519 0,4.605 -1.727,15.323 -12.21,15.323 -11.592,0 -13.519,-10.8 -13.816,-15.323 -0.814,-13.62 9.647,-41.869 0,-51.519 -1.827,-1.866 -8.577,-1.866 -10.422,0 -9.668,9.65 1.051,37.899 0,51.519 C 38.604,56.003 37.81,67.18 26.774,67.18 15.464,67.18 11.713,56.343 10.977,51.519 9.012,37.998 20.625,9.65 10.977,0 9.051,-1.924 1.945,-1.924 0,0" /></g><g
           transform="translate(254.4365,188.7578)"
           id="g64"><path
             id="path66"
             style="fill:#ffffff;fill-opacity:1;fill-rule:nonzero;stroke:none"
             d="m 0,0 c 0,0 0.474,17.111 9.886,26.504 4.089,4.128 1.35,8.217 -2.74,4.544 C 2.302,26.741 -1.887,11.079 0,0" /></g><g
           transform="translate(467.4805,277.3379)"
           id="g68"><path
             id="path70"
             style="fill:#e4322c;fill-opacity:1;fill-rule:nonzero;stroke:none"
             d="m 0,0 c 2.36,2.38 10.722,2.044 13.36,0 14.929,-11.377 17.765,-65.333 37.261,-65.333 19.059,0 22.79,53.999 37.855,65.333 2.483,1.924 10.406,2.242 12.647,0 23.049,-23.067 23.049,-107.495 0,-130.586 -2.241,-2.201 -10.421,-2.201 -12.647,0 -16.474,16.478 22.79,88.3 0,93.166 -13.596,2.956 -17.864,-39.804 -38.51,-40.159 -20.725,-0.34 -23.286,42.72 -36.606,40.159 -22.89,-4.31 16.456,-76.688 0,-93.166 -2.382,-2.362 -11,-2.362 -13.36,0 C -23.049,-107.495 -23.049,-23.067 0,0" /></g><g
           transform="translate(784.085,151.8555)"
           id="g72"><path
             id="path74"
             style="fill:#e4322c;fill-opacity:1;fill-rule:nonzero;stroke:none"
             d="m 0,0 c 11.175,0 22.414,-1.071 28.626,5.299 3.475,3.593 2.621,12.012 0.557,16.556 -3.614,7.922 -4.665,13.124 -27.038,13.124 -19.14,0 -22.433,-6.83 -22.433,-17.074 C -20.288,6.113 -11.138,0 0,0 m 1.589,71.049 c 34.64,0 43.653,-21.897 44.29,-33.828 C 46.434,25.688 49.471,4.148 41.094,-4.287 37.4,-7.922 12.208,-6.651 -0.776,-6.651 c -27.353,0 -38.71,10.044 -38.71,26.321 0,16.777 17.829,24.439 39.724,24.439 19.771,0 26.323,-6.709 30.017,-4.288 5.834,3.79 -1.75,23.761 -27.374,24.061 -26.364,0.278 -20.071,-11.196 -26.505,-16.197 -2.223,-1.748 -13.736,-2.522 -15.485,-0.299 -7.223,9.31 1.489,23.663 40.698,23.663" /></g><g
           transform="translate(612.1699,149.3916)"
           id="g76"><path
             id="path78"
             style="fill:#e4322c;fill-opacity:1;fill-rule:nonzero;stroke:none"
             d="m 0,0 c -0.199,-5.575 -12.529,-6.152 -12.866,0 -1.697,29.78 -8.468,54.474 0.737,64.601 2.201,2.379 10.084,2.517 12.129,0 C 9.349,52.887 1.309,37.62 0,0" /></g><g
           transform="translate(616.5938,229.5557)"
           id="g80"><path
             id="path82"
             style="fill:#e4322c;fill-opacity:1;fill-rule:nonzero;stroke:none"
             d="m 0,0 c 0,-5.501 -4.623,-9.946 -10.302,-9.946 -5.695,0 -10.352,4.445 -10.352,9.946 0,5.477 4.657,9.924 10.352,9.924 C -4.623,9.924 0,5.477 0,0" /></g><g
           transform="translate(457.6533,224.1563)"
           id="g84"><path
             id="path86"
             style="fill:#ffffff;fill-opacity:1;fill-rule:nonzero;stroke:none"
             d="m 0,0 c 0,0 0.774,26.717 15.444,41.41 6.41,6.432 2.143,12.823 -4.287,7.106 C 3.593,41.805 -2.959,17.311 0,0" /></g><g
           transform="translate(644.1309,278.0918)"
           id="g88"><path
             id="path90"
             style="fill:#e4322c;fill-opacity:1;fill-rule:nonzero;stroke:none"
             d="m 0,0 c 2.223,2.264 8.258,1.688 10.084,-0.914 18.165,-25.587 -26.603,-101.48 -4.762,-122.009 13.636,-12.885 27.888,7.405 36.645,3.575 4.546,-1.986 3.355,-8.755 0,-10.742 -13.679,-8.196 -33.033,-9.168 -41.967,0 C -22.892,-106.782 -22.892,-23.327 0,0" /></g><g
           transform="translate(700.2109,278.0918)"
           id="g92"><path
             id="path94"
             style="fill:#e4322c;fill-opacity:1;fill-rule:nonzero;stroke:none"
             d="m 0,0 c 2.226,2.264 8.277,1.688 10.104,-0.914 18.105,-25.587 -26.581,-101.48 -4.783,-122.009 13.636,-12.885 27.893,7.405 36.645,3.575 4.548,-1.986 3.337,-8.755 0,-10.742 -13.715,-8.196 -33.03,-9.168 -41.966,0 C -22.87,-106.782 -22.87,-23.327 0,0" /></g><g
           transform="translate(633.667,224.1563)"
           id="g96"><path
             id="path98"
             style="fill:#ffffff;fill-opacity:1;fill-rule:nonzero;stroke:none"
             d="m 0,0 c 0,0 0.774,26.717 15.448,41.41 6.429,6.432 2.142,12.823 -4.29,7.106 C 3.595,41.805 -2.955,17.311 0,0" /></g><g
           transform="translate(689.9697,224.1563)"
           id="g100"><path
             id="path102"
             style="fill:#ffffff;fill-opacity:1;fill-rule:nonzero;stroke:none"
             d="m 0,0 c 0,0 0.772,26.717 15.462,41.41 6.412,6.432 2.124,12.823 -4.307,7.106 C 3.61,41.805 -2.96,17.311 0,0" /></g><g
           transform="translate(249.8809,502.3198)"
           id="g104"><path
             id="path106"
             style="fill:#ffffff;fill-opacity:1;fill-rule:nonzero;stroke:none"
             d="m 0,0 c 0,0 6.577,25.907 24.096,37.051 7.668,4.878 4.865,12.052 -2.638,7.869 C 12.615,40.018 0.885,17.539 0,0" /></g></g></g></g></svg>